<svg viewBox="0 0 500 455" xmlns="http://www.w3.org/2000/svg" version="1.1" xmlns:xlink="http://www.w3.org/1999/xlink">
    <path d=" M 5 125, L 5 320, 220 445, 280 445, 495 320, 495 120, 280 10, 220 10, z  " stroke="#08f"
        stroke-width="15" fill="none" />
    <path
        d="M 80 245, L 80 325, 40 300, 40 150, 160 80, 160 370, 120 345, 120 245,z M 80 170, 80 205, 120 205, 120 145,z 
    M 180 70, L 220 45, 250 145, 280 45, 320 70, 320 380, 280 405, 280 165, 270 200, 230 200, 220 165, 220 405, 180 380, z 
    M 380 245, L 380 345, 340 370, 340 80, 460 140, 460 210, 440 220, 460 230, 460 300, 420 325, 420 265, 395 245,z
    M 380 195,L 395 195, 420 175, 420 165, 380 147,z "
        fill="#08f" stroke="#08f"
        stroke-width="2"/>
</svg>